<svg xmlns="http://www.w3.org/2000/svg" viewBox="0 0 500 500">
<rect x="10" y="10" height="192" width="192" style="fill:white"/> 
<line x1="10" y1="20" x2="202" y2="20" stroke="black" stroke-width="20"/>
<line x1="10" y1="192" x2="202" y2="192" stroke="black" stroke-width="20"/>

    <clipPath id="cut-off-right">
        <rect x="60" y="42.5" width="80" height="127"/>
    </clipPath>

    <circle cx="142" cy="105.7" r="59.78" fill="black"/>
    <circle cx="50" cy="32" r="170" fill="white" clip-path="url(#cut-off-right)"/>
<rect x="111.5" y="45.9" height="119.5" width="30" style="fill:black"/> 
   

    <clipPath id="cut-off">
        <rect x="-40" y="46.5" width="80" height="118"/>
    </clipPath>

    <circle cx="41" cy="105.7" r="59.78" fill="black"/>
    <circle cx="41" cy="32" r="150" fill="white" clip-path="url(#cut-off)"/>
<rect x="10.5" y="45.9" height="119.5" width="30" style="fill:black"/> 
<circle cx="53" cy="114" r="18" fill="white"/>
<rect x="34" y="85" height="20" width="38" style="fill:black"/> 
<polygon points="36.9 106, 53 70, 69.15 106" fill="white"/>
<circle cx="153" cy="114" r="18" fill="white"/>
<rect x="134" y="85" height="20" width="38" style="fill:black"/> 
<polygon points="136.9 106, 153 70, 169.15 106" fill="white"/>

</svg>


