<svg xmlns="http://www.w3.org/2000/svg" viewBox="0 0 400 400">
   <path fill="black" d="M12.008 31.884 L 12.008 51.760 200.000 51.760 L 387.992 51.760 387.992 31.884 L 387.992 12.008 200.000 12.008 L 12.008 12.008 12.008 31.884 M12.008 200.041 L 12.008 320.165 46.480 319.962 C 74.965 319.795,81.845 319.643,86.092 319.090 C 160.817 309.354,208.055 237.013,186.680 165.048 C 174.648 124.543,139.954 92.277,98.551 83.088 C 86.109 80.327,79.073 79.940,41.097 79.927 L 12.008 79.917 12.008 200.041 M212.008 200.000 L 212.008 320.165 246.480 319.962 C 283.680 319.743,285.204 319.664,296.452 317.346 C 361.676 303.909,403.469 239.135,388.971 173.951 C 378.744 127.968,342.420 92.124,296.450 82.653 C 285.204 80.336,283.679 80.256,246.480 80.038 L 212.008 79.835 212.008 200.000 M110.165 161.284 C 120.017 183.830,128.699 203.890,129.457 205.861 C 136.852 225.085,127.882 247.329,109.189 256.123 C 78.584 270.521,44.928 242.876,53.216 210.145 C 54.235 206.122,91.638 119.630,92.130 120.159 C 92.198 120.231,100.313 138.737,110.165 161.284 M309.231 159.213 C 318.568 180.621,326.990 199.907,327.945 202.070 C 336.832 222.201,330.222 244.203,312.154 254.635 C 281.583 272.285,244.559 244.336,253.216 210.145 C 254.235 206.121,291.638 119.631,292.131 120.159 C 292.198 120.231,299.893 137.805,309.231 159.213 M12.008 368.116 L 12.008 387.992 200.000 387.992 L 387.992 387.992 387.992 368.116 L 387.992 348.240 200.000 348.240 L 12.008 348.240 12.008 368.116" />
</svg>